<svg width="22" height="22" viewBox="0 0 22 22" fill="none" xmlns="http://www.w3.org/2000/svg">
<path d="M0.916687 19.25H4.58335V8.24996H0.916687V19.25ZM21.0834 9.16663C21.0834 8.15829 20.2584 7.33329 19.25 7.33329H13.4659L14.3367 3.14413L14.3642 2.85079C14.3642 2.47496 14.2084 2.12663 13.9609 1.87913L12.9892 0.916626L6.95752 6.95746C6.61835 7.28746 6.41669 7.74579 6.41669 8.24996V17.4166C6.41669 18.425 7.24169 19.25 8.25002 19.25H16.5C17.2609 19.25 17.9117 18.7916 18.1867 18.1316L20.955 11.6691C21.0375 11.4583 21.0834 11.2383 21.0834 11V9.16663Z" fill="white"/>
</svg>
