<svg width="22" height="22" viewBox="0 0 22 22" fill="none" xmlns="http://www.w3.org/2000/svg">
<path d="M13.75 2.75H5.50002C4.73919 2.75 4.08835 3.20833 3.81335 3.86833L1.04502 10.3308C0.96252 10.5417 0.916687 10.7617 0.916687 11V12.8333C0.916687 13.8417 1.74169 14.6667 2.75002 14.6667H8.53419L7.66335 18.8558L7.63585 19.1492C7.63585 19.525 7.79169 19.8733 8.03919 20.1208L9.01085 21.0833L15.0517 15.0425C15.3817 14.7125 15.5834 14.2542 15.5834 13.75V4.58333C15.5834 3.575 14.7584 2.75 13.75 2.75ZM17.4167 2.75V13.75H21.0834V2.75H17.4167Z" fill="white"/>
</svg>
